<?xml version="1.0" encoding="UTF-8"?>
<svg id="_图层_2" data-name="图层 2" xmlns="http://www.w3.org/2000/svg" viewBox="0 0 512 512">
  <defs>
    <style>
      .cls-1 {
        fill: none;
      }

      .cls-2 {
        fill: #33de73;
      }

      .cls-3 {
        fill: #1b1c1d;
      }

      .cls-4 {
        isolation: isolate;
      }
    </style>
  </defs>
  <g id="_图层_2-2" data-name=" 图层 2">
    <g>
      <g id="Vertical">
        <g class="cls-4">
          <path class="cls-3" d="M188.54,385.94l-3.66,3.94v9.75h-7.03v-34.12h7.03v15.47l3.09-4.24,8.7-11.23h8.65l-12.12,15.16,12.47,18.96h-8.37l-8.77-13.69Z"/>
        </g>
        <g class="cls-4">
          <path class="cls-3" d="M222.53,397.05c-1.67,2.03-3.98,3.05-6.94,3.05-2.72,0-4.79-.78-6.22-2.34s-2.16-3.85-2.19-6.87v-16.62h6.77v16.4c0,2.64,1.2,3.96,3.61,3.96s3.88-.8,4.73-2.39v-17.97h6.8v25.36h-6.38l-.19-2.58Z"/>
          <path class="cls-3" d="M257.05,387.18c0,4.06-.87,7.23-2.6,9.5s-4.16,3.41-7.27,3.41c-2.75,0-4.95-1.05-6.59-3.16l-.3,2.7h-6.09v-36h6.77v12.91c1.56-1.83,3.62-2.74,6.16-2.74,3.09,0,5.52,1.14,7.28,3.41s2.64,5.47,2.64,9.6v.38Zm-6.77-.49c0-2.56-.41-4.43-1.22-5.61s-2.02-1.77-3.63-1.77c-2.16,0-3.64,.88-4.45,2.65v10.01c.83,1.78,2.33,2.67,4.5,2.67s3.62-1.08,4.31-3.23c.33-1.03,.49-2.6,.49-4.71Z"/>
          <path class="cls-3" d="M272.9,400.1c-3.72,0-6.75-1.14-9.08-3.42s-3.5-5.32-3.5-9.12v-.66c0-2.55,.49-4.82,1.48-6.83s2.38-3.55,4.18-4.64,3.86-1.63,6.18-1.63c3.47,0,6.2,1.09,8.19,3.28s2.99,5.29,2.99,9.3v2.77h-16.15c.22,1.66,.88,2.98,1.98,3.98s2.5,1.5,4.18,1.5c2.61,0,4.65-.95,6.12-2.84l3.33,3.73c-1.02,1.44-2.39,2.56-4.12,3.36s-3.66,1.21-5.77,1.21Zm-.77-20.84c-1.34,0-2.43,.46-3.27,1.37-.84,.91-1.37,2.21-1.61,3.91h9.42v-.54c-.03-1.51-.44-2.67-1.22-3.5-.78-.82-1.89-1.24-3.33-1.24Z"/>
          <path class="cls-3" d="M301.86,399.63c-.31-.61-.54-1.37-.68-2.27-1.64,1.83-3.77,2.74-6.4,2.74-2.48,0-4.54-.72-6.18-2.16s-2.45-3.25-2.45-5.44c0-2.69,1-4.75,2.99-6.19s4.87-2.16,8.64-2.18h3.12v-1.45c0-1.17-.3-2.11-.9-2.81s-1.55-1.05-2.85-1.05c-1.14,0-2.04,.27-2.68,.82s-.97,1.3-.97,2.25h-6.77c0-1.47,.45-2.83,1.36-4.08s2.19-2.23,3.84-2.94,3.52-1.07,5.58-1.07c3.12,0,5.61,.79,7.44,2.36s2.75,3.78,2.75,6.62v10.99c.02,2.41,.35,4.23,1.01,5.46v.4h-6.84Zm-5.6-4.71c1,0,1.92-.22,2.77-.67s1.47-1.04,1.88-1.79v-4.36h-2.53c-3.39,0-5.2,1.17-5.41,3.52l-.02,.4c0,.84,.3,1.54,.89,2.09s1.41,.82,2.44,.82Z"/>
          <path class="cls-3" d="M319.14,374.27l.21,2.93c1.81-2.27,4.24-3.4,7.29-3.4,2.69,0,4.69,.79,6,2.37s1.98,3.94,2.02,7.08v16.38h-6.77v-16.22c0-1.44-.31-2.48-.94-3.13s-1.66-.97-3.12-.97c-1.91,0-3.34,.81-4.29,2.44v17.88h-6.77v-25.36h6.38Z"/>
        </g>
        <rect id="Frame-2" class="cls-1" width="512" height="512"/>
      </g>
      <g>
        <path d="M321.55,194.93c-4.31-6.73-13.75-10.22-20.95-7.6-8.3,3.02-13.22,11.31-11.32,22.67,.81,3.84,4.2,8.66,10.6,10.85,7.16-7.5,14-15.54,20.42-24.21,.42-.57,.83-1.14,1.25-1.71h0Z"/>
        <path d="M291.6,229.15c-.09-.69-.4-1.42-.85-2.2-3.97-6.87-12.13-9.94-20-7.04-7.09,2.62-11.03,9.13-10.24,17.71,.62,3.85,2.48,7.77,6.4,10.61,.67,.48,1.28,.77,1.88,.86,5.52-4.47,10.97-9.1,16.31-13.9,2.19-1.97,4.36-3.98,6.5-6.04h0Z"/>
        <path d="M259.69,256.27c.07-.74-.19-1.55-.73-2.44-3.57-5.81-8.88-8.3-15.54-8.19-4.34,.15-7.85,2.19-10.69,5.13-5.87,6.06-6.2,15.17-.87,21.75,.64,.79,1.31,1.3,2.11,1.35,5.5-3.19,10.93-6.62,16.16-10.44,3.2-2.34,6.39-4.72,9.55-7.16h.01Z"/>
        <path d="M208.6,270.27c-4.87-.08-9.38,1.61-12.09,6.51-2.43,4.41-2.61,8.99-.2,13.53,.06,.11,.12,.22,.18,.32,8.48-2.39,16.75-5.75,24.82-9.88-.86-5.22-6.41-10.16-12.7-10.49h0Z"/>
        <path class="cls-2" d="M235.74,273.29c7.33-4.87,14.68-9.7,22.08-14.47,1.19-.77,1.79-1.61,1.87-2.55-3.17,2.43-6.35,4.82-9.55,7.16-5.24,3.82-10.66,7.26-16.16,10.44,.53,.03,1.1-.14,1.76-.58h0Z"/>
        <path class="cls-2" d="M362.37,160.9c-6.41-2.35-12.75-5.21-19.27-6.84-9.21-2.3-18.52-2.83-27.9-.81-9.17,1.97-17.8,5.76-25.98,11.48-13.19,9.24-24.16,22.4-35.47,35.01-7.51,8.37-15.18,16.54-23.19,24.02-4.45,4.16-9.75,6.72-14.67,10,3.24-.27,6.53-1.04,9.84-1.57,9.25-1.48,17.7-6.18,25.26-12.9,9.77-8.69,19.03-18.41,28.41-27.85,10.75-10.81,21.7-21.06,35.39-24.29,7.49-1.76,15.02-1.76,22.5,.18,2.25,.58,2.45,1.61,.82,3.98-5.48,7.92-10.91,15.91-16.55,23.63-.42,.57-.83,1.14-1.25,1.71-6.41,8.67-13.25,16.72-20.42,24.21-2.72,2.84-5.48,5.61-8.28,8.29-2.14,2.06-4.31,4.07-6.5,6.04-5.35,4.8-10.79,9.43-16.31,13.9-3.01,2.44-6.04,4.83-9.09,7.18-.08,.94-.68,1.78-1.87,2.55-7.4,4.77-14.75,9.6-22.08,14.47-.66,.44-1.24,.61-1.76,.58-3.78,2.19-7.6,4.26-11.43,6.26-.41,.22-.83,.42-1.24,.64-8.07,4.12-16.33,7.49-24.82,9.88-2.3,.65-4.62,1.23-6.95,1.73-10.85,2.33-21.65,3.87-32.59,1.57-2.92-.61-5.86-1.09-8.79-1.63,9.32,5.51,19.04,8.77,29.13,10.65,13.51,2.52,26.89,1.46,40.09-2.18,8.49-2.34,16.86-5.9,24.99-9.96,15.73-7.86,30.15-19.04,43.64-32.32,11.9-11.72,22.68-25.01,32.7-39.48,8.59-12.4,15.92-26,23-39.89,2.73-5.36,6.2-9.72,10.88-11.98,3.64-1.76,7.34-3.28,11.25-5.01-.59-.52-.99-1.07-1.47-1.25h-.02Z"/>
      </g>
    </g>
  </g>
</svg>